{
  "title": "Maze Runner: The Scorch Trials (2015) CAMRip [RUS]",
  "uid": 12477176,
  "size": 1561825280,
  "categoryP": "video",
  "categoryS": "movies",
  "magnet": "?xt=urn:btih:7c6ccfe13bc332af11c74f43cfdc88580a49727b&amp;dn=Maze+Runner%3A+The+Scorch+Trials+%282015%29+CAMRip+%5BRUS%5D&amp;tr=udp%3A%2F%2Ftracker.openbittorrent.com%3A80&amp;tr=udp%3A%2F%2Fopen.demonii.com%3A1337&amp;tr=udp%3A%2F%2Ftracker.coppersurfer.tk%3A6969&amp;tr=udp%3A%2F%2Fexodus.desync.com%3A6969",
  "seeders": 1931,
  "leechers": 315,
  "uploader": "nbdjod",
  "files": 1,
  "time": 1443002132,
  "description": "Maze Runner: The Scorch Trials (2015) CAMRip\n\nAudio  - RUSSIAN!!!!\n\nMI:\nGeneral\nFormat                                   : AVI\nFormat/Info                              : Audio Video Interleave\nFile size                                : 23.3 MiB\nDuration                                 : 1mn 22s\nOverall bit rate                         : 2 379 Kbps\nMovie name                               : BegUsch1y.v.1abirin3e.1spi3anie.0gnem.2015.D.CAMRip.ELEKTRI4KA.uniongang.tv\nWriting application                      : VirtualDubMod 1.5.10.3 | www.virtualdub-fr.org || (build 2550/release)\nWriting library                          : VirtualDubMod build 2550/release\nCopyright                                : UNIONGANG&amp;RUSTORRENTS\n\nVideo\nID                                       : 0\nFormat                                   : MPEG-4 Visual\nFormat profile                           : Advanced Simple@L5\nFormat settings, BVOP                    : 2\nFormat settings, QPel                    : No\nFormat settings, GMC                     : No warppoints\nFormat settings, Matrix                  : Default (MPEG)\nCodec ID                                 : XVID\nCodec ID/Hint                            : XviD\nDuration                                 : 1mn 22s\nBit rate                                 : 2 238 Kbps\nWidth                                    : 720 pixels\nHeight                                   : 400 pixels\nDisplay aspect ratio                     : 16:9\nFrame rate                               : 29.970 fps\nColor space                              : YUV\nChroma subsampling                       : 4:2:0\nBit depth                                : 8 bits\nScan type                                : Progressive\nCompression mode                         : Lossy\nBits/(Pixel*Frame)                       : 0.259\nStream size                              : 21.9 MiB (94%)\nWriting library                          : XviD 1.2.1 (UTC 2008-12-04)\n\nAudio\nID                                       : 1\nFormat                                   : AC-3\nFormat/Info                              : Audio Coding 3\nMode extension                           : CM (complete main)\nFormat settings, Endianness              : Big\nCodec ID                                 : 2000\nDuration                                 : 1mn 22s\nBit rate mode                            : Constant\nBit rate                                 : 128 Kbps\nChannel(s)                               : 2 channels\nChannel positions                        : Front: L R\nSampling rate                            : 48.0 KHz\nCompression mode                         : Lossy\nDelay relative to video                  : 14ms\nStream size                              : 1.25 MiB (5%)\nAlignment                                : Split accross interleaves\nInterleave, duration                     : 34 ms (1.01 video frame)\nInterleave, preload duration             : 500 ms\n\n\n\n\n\nScreens: &lt;a href=&quot;\nhttp://i4.imageban.ru/out/2015/09/23/ea1313835046df4e76eff71f87f4398f.jpg&quot; rel=&quot;nofollow&quot; target=&quot;_NEW&quot;&gt;\nhttp://i4.imageban.ru/out/2015/09/23/ea1313835046df4e76eff71f87f4398f.jpg&lt;/a&gt; &lt;a href=&quot;\nhttp://i5.imageban.ru/out/2015/09/23/a7c5a9e6d5df597bfe10f28cdbdb423b.jpg&quot; rel=&quot;nofollow&quot; target=&quot;_NEW&quot;&gt;\nhttp://i5.imageban.ru/out/2015/09/23/a7c5a9e6d5df597bfe10f28cdbdb423b.jpg&lt;/a&gt; &lt;a href=&quot;\nhttp://i6.imageban.ru/out/2015/09/23/c1230522f016d1ad53cbdb7fd2044865.jpg&quot; rel=&quot;nofollow&quot; target=&quot;_NEW&quot;&gt;\nhttp://i6.imageban.ru/out/2015/09/23/c1230522f016d1ad53cbdb7fd2044865.jpg&lt;/a&gt; &lt;a href=&quot;\nhttp://i6.imageban.ru/out/2015/09/23/f332121313a13cf44919467eb98a1b67.jpg&quot; rel=&quot;nofollow&quot; target=&quot;_NEW&quot;&gt;\nhttp://i6.imageban.ru/out/2015/09/23/f332121313a13cf44919467eb98a1b67.jpg&lt;/a&gt;\n\nSample: &lt;a href=&quot;\nhttp://sendfile.su/1156697&quot; rel=&quot;nofollow&quot; target=&quot;_NEW&quot;&gt;\nhttp://sendfile.su/1156697&lt;/a&gt;",
  "parsed": {
    "xt": "urn:btih:7c6ccfe13bc332af11c74f43cfdc88580a49727b",
    "dn": "Maze Runner: The Scorch Trials (2015) CAMRip [RUS]",
    "tr": [
      "udp://exodus.desync.com:6969",
      "udp://open.demonii.com:1337",
      "udp://tracker.coppersurfer.tk:6969",
      "udp://tracker.openbittorrent.com:80"
    ],
    "infoHash": "7c6ccfe13bc332af11c74f43cfdc88580a49727b",
    "infoHashBuffer": {
      "type": "Buffer",
      "data": [
        124,
        108,
        207,
        225,
        59,
        195,
        50,
        175,
        17,
        199,
        79,
        67,
        207,
        220,
        136,
        88,
        10,
        73,
        114,
        123
      ]
    },
    "name": "Maze Runner: The Scorch Trials (2015) CAMRip [RUS]",
    "announce": [
      "udp://exodus.desync.com:6969",
      "udp://open.demonii.com:1337",
      "udp://tracker.coppersurfer.tk:6969",
      "udp://tracker.openbittorrent.com:80"
    ],
    "urlList": []
  },
  "previous": 2246,
  "peers": 46,
  "last_updated": "2016-12-25T05:40:33.900Z"
}